<?xml version="1.0" standalone="no"?><!-- Generator: Gravit.io --><svg xmlns="http://www.w3.org/2000/svg" xmlns:xlink="http://www.w3.org/1999/xlink" style="isolation:isolate" viewBox="0 0 25 16" width="25" height="16"><g id="null"><linearGradient id="_lgradient_0" x1="50%" y1="99.99999999999999%" x2="49.999999999999986%" y2="-1.1102230246251565e-14%"><stop offset="0%" stop-opacity="1" style="stop-color:rgb(0,204,255)"/><stop offset="100%" stop-opacity="1" style="stop-color:rgb(0,0,0)"/></linearGradient><linearGradient id="_lgradient_1" x1="53.51133456441776%" y1="0.11935317078341978%" x2="48.37880987437907%" y2="99.46063718341867%"><stop offset="0%" stop-opacity="1" style="stop-color:rgb(0,221,255)"/><stop offset="100%" stop-opacity="1" style="stop-color:rgb(0,0,0)"/></linearGradient><path d=" M 24.478 8.447 C 24.873 4.315 19.826 0.76 13.215 0.514 C 6.604 0.267 0.916 3.421 0.522 7.553 C 0.127 11.685 5.174 15.24 11.785 15.486 C 18.396 15.733 24.084 12.579 24.478 8.447 Z " fill="url(#_lgradient_0)" vector-effect="non-scaling-stroke" stroke-width="0.818" stroke="url(#_lgradient_1)" stroke-linejoin="miter" stroke-linecap="square" stroke-miterlimit="3"/><g id="null"><linearGradient id="_lgradient_2" x1="50%" y1="0%" x2="49.999999999999964%" y2="99.99999999999996%"><stop offset="0%" stop-opacity="1" style="stop-color:rgb(0,0,0)"/><stop offset="100%" stop-opacity="1" style="stop-color:rgb(0,255,255)"/></linearGradient><mask id="_mask_bj91l7ZRw42QZCqBUIp71wUV4clKaheG"><path d=" M 23.984 8.023 C 24.004 4.061 18.874 0.835 12.536 0.823 C 6.198 0.81 1.036 4.016 1.016 7.977 C 0.996 11.939 6.126 15.165 12.464 15.177 C 18.802 15.19 23.964 11.984 23.984 8.023 Z " fill="white" stroke="none"/></mask><linearGradient id="_lgradient_3" x1="50%" y1="-9.71445146547012e-15%" x2="50.000000000000014%" y2="99.99999999999999%"><stop offset="0%" stop-opacity="1" style="stop-color:rgb(0,255,255)"/><stop offset="100%" stop-opacity="1" style="stop-color:rgb(0,0,0)"/></linearGradient><path d=" M 23.984 8.023 C 24.004 4.061 18.874 0.835 12.536 0.823 C 6.198 0.81 1.036 4.016 1.016 7.977 C 0.996 11.939 6.126 15.165 12.464 15.177 C 18.802 15.19 23.964 11.984 23.984 8.023 Z " fill="url(#_lgradient_2)" mask="url(#_mask_bj91l7ZRw42QZCqBUIp71wUV4clKaheG)" vector-effect="non-scaling-stroke" stroke-width="3.203" stroke="url(#_lgradient_3)" stroke-linejoin="miter" stroke-linecap="square" stroke-miterlimit="3"/></g></g></svg>